<svg width="814" height="190" viewBox="0 0 814 190" fill="none" xmlns="http://www.w3.org/2000/svg">
<g clip-path="url(#clip0_5_231)">
<path d="M723.502 8.82739C673.539 8.82739 633.064 49.3015 633.064 99.3236C633.064 149.346 673.539 189.76 723.502 189.76C773.465 189.76 814 149.286 814 99.3236C814 49.3615 773.405 8.82739 723.502 8.82739ZM773.946 68.3976C773.946 68.3976 773.946 69.2983 773.345 69.9589C771.063 73.0815 768.601 75.8438 765.478 78.1858C765.058 78.5461 764.277 78.8464 764.277 79.5069C764.277 95.8407 760.074 112.054 748.243 123.824C733.11 138.897 710.411 142.98 690.294 137.396C686.45 136.315 682.667 134.813 679.064 132.952C677.863 132.291 676.722 131.631 675.521 130.85C675.281 130.61 675.04 130.43 675.281 130.25C675.521 130.069 675.761 130.069 676.602 130.25C682.307 130.73 688.072 129.889 693.416 128.088C696.359 127.067 702.604 124.965 704.466 122.203C704.466 122.143 704.526 122.143 704.526 122.143C703.745 121.963 703.085 121.963 702.364 121.783C696.899 120.221 689.573 117.459 686.21 108.211C685.97 107.731 686.21 107.37 686.691 107.551C691.194 107.911 692.876 107.611 694.377 107.31C693.536 107.13 692.636 106.83 691.795 106.47C684.949 103.887 679.905 97.1618 679.004 89.8957C678.824 89.055 678.824 88.3343 678.824 87.5537C678.884 86.9532 679.064 86.773 679.604 87.1333C683.147 88.9949 687.111 89.4153 687.471 89.2952C686.57 88.6346 685.79 87.8539 684.949 87.1333C679.004 81.4285 676.662 69.8988 681.406 62.8129C681.826 62.2123 682.067 62.2123 682.487 62.7528C693.416 75.2433 706.928 81.0682 723.142 83.4702C723.462 83.4702 723.602 83.3101 723.562 82.9898C723.142 80.1675 723.142 77.285 723.802 74.4627C724.463 71.5202 725.904 68.7579 727.826 66.4159C729.687 64.134 731.909 62.3325 734.492 60.8912C737.074 59.5701 739.956 58.7895 742.839 58.5493C745.841 58.3691 748.844 58.9096 751.606 59.9905C753.708 60.8912 755.63 61.9721 757.371 63.5335C757.732 63.8938 758.032 64.194 758.392 64.6144C758.572 64.7945 758.873 64.8546 759.233 64.7945C763.316 63.7737 767.28 62.2724 771.003 60.2907C771.183 60.2307 771.363 60.2307 771.483 60.2907C771.664 60.3508 771.664 60.651 771.543 60.7711C770.883 62.933 769.622 65.0347 768.181 66.7762C767.28 67.9772 764.938 70.8596 763.256 71.0998C766.679 70.4993 770.102 69.6586 773.285 68.2775C773.705 68.0973 773.705 68.0373 773.705 68.2775L773.946 68.3976Z" fill="#184669"/>
<path d="M428.228 56.4475H385.832C373.761 56.4475 363.973 66.2358 363.973 78.3059V120.642C363.973 132.772 373.761 142.56 385.832 142.56H428.228C440.299 142.56 450.087 132.772 450.087 120.642V78.3059C450.087 66.2358 440.299 56.4475 428.228 56.4475ZM407.51 125.626C393.038 125.626 381.328 113.856 381.328 99.4437C381.328 85.0316 393.038 73.3217 407.51 73.3217C421.983 73.3217 433.633 85.0316 433.633 99.4437C433.633 113.856 421.923 125.626 407.51 125.626ZM435.134 77.7655C431.711 77.7655 428.949 75.0032 428.949 71.5803C428.949 68.1574 431.711 65.3951 435.134 65.3951C438.557 65.3951 441.38 68.1574 441.38 71.5803C441.38 75.0032 438.557 77.7655 435.134 77.7655ZM428.288 56.4475H385.892C373.821 56.4475 364.033 66.2358 364.033 78.3059V120.642C364.033 132.772 373.821 142.56 385.892 142.56H428.288C440.359 142.56 450.147 132.772 450.147 120.642V78.3059C450.147 66.2358 440.359 56.4475 428.288 56.4475ZM407.57 125.626C393.098 125.626 381.388 113.856 381.388 99.4437C381.388 85.0316 393.098 73.3217 407.57 73.3217C422.043 73.3217 433.693 85.0316 433.693 99.4437C433.693 113.856 421.983 125.626 407.57 125.626ZM435.194 77.7655C431.771 77.7655 429.009 75.0032 429.009 71.5803C429.009 68.1574 431.771 65.3951 435.194 65.3951C438.617 65.3951 441.44 68.1574 441.44 71.5803C441.44 75.0032 438.617 77.7655 435.194 77.7655ZM407.09 9.06763C357.127 9.06763 316.652 49.5417 316.652 99.5638C316.652 149.586 357.127 190 407.09 190C457.053 190 497.588 149.526 497.588 99.5638C497.588 49.6018 457.113 9.06763 407.09 9.06763ZM460.116 120.582C460.116 138.176 445.883 152.468 428.348 152.468H385.952C368.357 152.468 354.064 138.176 354.064 120.582V78.2459C354.064 60.6511 368.357 46.359 385.952 46.359H428.348C445.943 46.359 460.116 60.6511 460.116 78.2459V120.582ZM428.348 56.4475H385.952C373.881 56.4475 364.093 66.2358 364.093 78.3059V120.642C364.093 132.772 373.881 142.56 385.952 142.56H428.348C440.419 142.56 450.207 132.772 450.207 120.642V78.3059C450.207 66.2358 440.419 56.4475 428.348 56.4475ZM407.631 125.626C393.158 125.626 381.448 113.856 381.448 99.4437C381.448 85.0316 393.158 73.3217 407.631 73.3217C422.103 73.3217 433.753 85.0316 433.753 99.4437C433.753 113.856 422.043 125.626 407.631 125.626ZM435.254 77.7655C431.831 77.7655 429.069 75.0032 429.069 71.5803C429.069 68.1574 431.831 65.3951 435.254 65.3951C438.677 65.3951 441.5 68.1574 441.5 71.5803C441.5 75.0032 438.677 77.7655 435.254 77.7655Z" fill="#184669"/>
<path d="M407.45 116.198C416.704 116.198 424.205 108.697 424.205 99.4438C424.205 90.1908 416.704 82.6897 407.45 82.6897C398.197 82.6897 390.696 90.1908 390.696 99.4438C390.696 108.697 398.197 116.198 407.45 116.198Z" fill="#184669"/>
<path d="M180.936 90.4962C180.936 40.5341 140.461 0 90.4978 0C40.5349 0 0 40.5341 0 90.4962C0 135.654 33.0885 173.066 76.3256 179.851V116.618H53.3259V90.4362H76.3256V70.4994C76.3256 47.8003 89.8372 35.3097 110.495 35.3097C120.404 35.3097 130.732 37.0512 130.732 37.0512V59.33H119.323C108.093 59.33 104.55 66.2958 104.55 73.4418V90.4362H129.651L125.628 116.618H104.55V179.851C147.787 173.066 180.876 135.654 180.876 90.4962H180.936Z" fill="#184669"/>
</g>
<defs>
<clipPath id="clip0_5_231">
<rect width="814" height="190" fill="white"/>
</clipPath>
</defs>
</svg>
